<?xml version="1.0" standalone="no"?>
<!DOCTYPE svg PUBLIC "-//W3C//DTD SVG 20010904//EN"
 "http://www.w3.org/TR/2001/REC-SVG-20010904/DTD/svg10.dtd">
<svg version="1.0" xmlns="http://www.w3.org/2000/svg"
 width="300.000000pt" height="300.000000pt" viewBox="0 0 300.000000 300.000000"
 preserveAspectRatio="xMidYMid meet">
<metadata>
Created by potrace 1.10, written by Peter Selinger 2001-2011
</metadata>
<g transform="translate(0.000000,300.000000) scale(0.100000,-0.100000)"
fill="#000000" stroke="none">
<path d="M1287 1924 c-3 -4 -48 -7 -99 -8 -82 -2 -98 -5 -136 -30 -41 -25 -83
-81 -89 -116 -6 -30 -3 -563 3 -589 17 -77 55 -122 124 -146 35 -12 87 -15
262 -14 200 1 220 3 243 21 30 24 33 70 7 99 -16 16 -34 20 -115 22 -53 2 -99
6 -102 9 -8 8 24 58 36 58 5 0 9 6 9 14 0 8 3 16 8 18 4 2 20 20 35 41 16 21
33 37 37 35 5 -2 45 -52 90 -113 131 -177 151 -194 240 -200 86 -6 185 68 196
146 2 19 5 138 5 264 1 353 0 377 -11 370 -5 -3 -10 1 -10 10 0 15 -28 46 -74
83 -13 10 -89 14 -327 17 -170 2 -313 6 -318 9 -4 3 -11 3 -14 0z m633 -50
c29 -12 48 -29 66 -59 l25 -43 -3 -309 c-3 -307 -3 -308 -27 -342 -52 -72
-166 -90 -230 -35 -17 14 -78 90 -136 169 -59 80 -108 145 -110 145 -3 0 -195
-258 -195 -263 0 -2 58 -1 128 1 110 4 131 2 145 -13 21 -21 22 -39 1 -60 -14
-13 -47 -15 -239 -15 -209 1 -226 3 -267 23 -23 12 -53 37 -65 56 -23 33 -23
39 -23 338 0 325 1 333 52 380 12 12 34 26 48 32 15 6 178 10 407 10 330 1
388 -1 423 -15z"/>
<path d="M1095 1785 l-25 -24 0 -291 c0 -277 1 -291 20 -310 15 -15 33 -20 70
-20 l50 0 123 167 c145 198 174 232 184 217 178 -248 277 -373 303 -384 38
-16 82 0 99 36 7 17 11 118 11 305 l0 280 -25 24 -24 25 -381 0 -381 0 -24
-25z m791 -30 c10 -13 14 -45 14 -100 0 -44 0 -120 0 -170 1 -309 3 -281 -26
-304 -26 -21 -26 -21 -54 -1 -15 11 -67 75 -116 142 -49 68 -92 125 -96 126
-4 2 -8 8 -8 14 0 18 -77 88 -97 88 -24 0 -66 -45 -124 -130 -24 -36 -52 -74
-61 -84 -10 -11 -18 -23 -18 -27 0 -5 -10 -19 -22 -33 -13 -14 -36 -44 -52
-66 -26 -34 -35 -40 -67 -40 -20 0 -42 6 -48 13 -15 19 -16 554 -1 572 6 8 21
16 33 18 12 2 181 4 375 3 339 -1 354 -2 368 -21z"/>
<path d="M1407 1721 c-74 -50 -107 -95 -115 -160 -4 -39 28 -81 63 -81 21 0
80 52 70 61 -11 12 47 52 75 52 31 0 84 -39 74 -54 -8 -14 43 -59 66 -59 25 0
66 25 74 45 9 23 -22 108 -52 141 -43 50 -103 75 -172 73 -34 -1 -70 -9 -83
-18z m183 -31 c41 -21 84 -76 95 -121 4 -17 0 -33 -13 -48 -15 -20 -22 -22
-39 -12 -12 6 -24 24 -28 41 -9 43 -58 80 -105 80 -47 0 -96 -37 -105 -80 -6
-26 -30 -50 -49 -50 -3 0 -12 10 -21 23 -30 46 23 140 100 173 45 20 120 17
165 -6z"/>
</g>
</svg>
